<?xml version="1.0" encoding="UTF-8"?>
<!DOCTYPE svg PUBLIC "-//W3C//DTD SVG 1.1//EN" "http://www.w3.org/Graphics/SVG/1.1/DTD/svg11.dtd">
<svg xmlns="http://www.w3.org/2000/svg" version="1.1" width="32px" height="32px" style="shape-rendering:geometricPrecision; text-rendering:geometricPrecision; image-rendering:optimizeQuality; fill-rule:evenodd; clip-rule:evenodd" xmlns:xlink="http://www.w3.org/1999/xlink">
<g><path style="opacity:0.347" fill="#fefffe" d="M 9.5,-0.5 C 14.1667,-0.5 18.8333,-0.5 23.5,-0.5C 24.7927,1.29585 26.2927,2.96252 28,4.5C 28.4996,11.1583 28.6663,17.825 28.5,24.5C 27.5,24.5 26.5,24.5 25.5,24.5C 24.6842,26.8954 23.6842,29.2288 22.5,31.5C 16.1667,31.5 9.83333,31.5 3.5,31.5C 2.36565,23.2452 2.19898,14.9119 3,6.5C 4.01127,5.66337 5.17793,5.33003 6.5,5.5C 6.5,4.5 6.5,3.5 6.5,2.5C 7.5,2.5 8.5,2.5 9.5,2.5C 9.5,1.5 9.5,0.5 9.5,-0.5 Z M 10.5,1.5 C 14.1667,1.5 17.8333,1.5 21.5,1.5C 21.5,3.16667 21.5,4.83333 21.5,6.5C 23.1667,6.5 24.8333,6.5 26.5,6.5C 26.5,12.1667 26.5,17.8333 26.5,23.5C 23.7081,23.5479 21.8747,22.2146 21,19.5C 20.6667,15.1667 20.3333,10.8333 20,6.5C 16.9433,5.54948 13.7766,5.21614 10.5,5.5C 10.5,4.16667 10.5,2.83333 10.5,1.5 Z M 22.5,2.5 C 26.0595,4.28252 26.0595,5.28252 22.5,5.5C 22.5,4.5 22.5,3.5 22.5,2.5 Z M 4.5,6.5 C 9.16667,6.5 13.8333,6.5 18.5,6.5C 18.3343,10.8461 18.501,15.1794 19,19.5C 21.1642,22.4473 21.9975,25.7806 21.5,29.5C 18.7847,28.5492 15.9514,27.8825 13,27.5C 10.0486,27.8825 7.21526,28.5492 4.5,29.5C 4.5,21.8333 4.5,14.1667 4.5,6.5 Z"/></g>
<g><path style="opacity:0.343" fill="#fefffe" d="M 6.5,9.5 C 9.83333,9.5 13.1667,9.5 16.5,9.5C 16.5,11.5 16.5,13.5 16.5,15.5C 13.1667,15.5 9.83333,15.5 6.5,15.5C 6.5,13.5 6.5,11.5 6.5,9.5 Z"/></g>
</svg>
