<?xml version="1.0" encoding="UTF-8"?>
<!DOCTYPE svg PUBLIC "-//W3C//DTD SVG 1.1//EN" "http://www.w3.org/Graphics/SVG/1.1/DTD/svg11.dtd">
<svg xmlns="http://www.w3.org/2000/svg" version="1.1" width="32px" height="32px" style="shape-rendering:geometricPrecision; text-rendering:geometricPrecision; image-rendering:optimizeQuality; fill-rule:evenodd; clip-rule:evenodd" xmlns:xlink="http://www.w3.org/1999/xlink">
<g><path style="opacity:0.581" fill="#fefffe" d="M 12.5,0.5 C 14.5273,0.337876 16.5273,0.504543 18.5,1C 22.3333,4.83333 26.1667,8.66667 30,12.5C 28.3389,17.4598 27.3389,22.7931 27,28.5C 26.5,29 26,29.5 25.5,30C 18.8333,30.6667 12.1667,30.6667 5.5,30C 5,29.5 4.5,29 4,28.5C 3.66108,22.7931 2.66108,17.4598 1,12.5C 5.03702,8.63104 8.87035,4.63104 12.5,0.5 Z M 14.5,2.5 C 19.4194,5.74828 23.7528,9.74828 27.5,14.5C 25.8664,18.6395 24.8664,22.9728 24.5,27.5C 22.9547,28.4519 21.288,28.7852 19.5,28.5C 19.5,25.5 19.5,22.5 19.5,19.5C 16.8333,19.5 14.1667,19.5 11.5,19.5C 11.5,22.5 11.5,25.5 11.5,28.5C 9.71199,28.7852 8.04533,28.4519 6.5,27.5C 6.13363,22.9728 5.13363,18.6395 3.5,14.5C 7.18861,10.4799 10.8553,6.47988 14.5,2.5 Z M 13.5,21.5 C 14.8333,21.5 16.1667,21.5 17.5,21.5C 17.5,23.8333 17.5,26.1667 17.5,28.5C 16.1667,28.5 14.8333,28.5 13.5,28.5C 13.5,26.1667 13.5,23.8333 13.5,21.5 Z"/></g>
</svg>
