<?xml version="1.0" encoding="UTF-8"?>
<!DOCTYPE svg PUBLIC "-//W3C//DTD SVG 1.1//EN" "http://www.w3.org/Graphics/SVG/1.1/DTD/svg11.dtd">
<svg xmlns="http://www.w3.org/2000/svg" version="1.1" width="32px" height="32px" style="shape-rendering:geometricPrecision; text-rendering:geometricPrecision; image-rendering:optimizeQuality; fill-rule:evenodd; clip-rule:evenodd" xmlns:xlink="http://www.w3.org/1999/xlink">
<g><path style="opacity:0.654" fill="#000000" d="M -0.5,-0.5 C 0.833333,-0.5 2.16667,-0.5 3.5,-0.5C 7.14563,3.8123 11.1456,7.8123 15.5,11.5C 19.8544,7.8123 23.8544,3.8123 27.5,-0.5C 28.8333,-0.5 30.1667,-0.5 31.5,-0.5C 31.5,0.833333 31.5,2.16667 31.5,3.5C 27.1877,7.14563 23.1877,11.1456 19.5,15.5C 23.1877,19.8544 27.1877,23.8544 31.5,27.5C 31.5,28.8333 31.5,30.1667 31.5,31.5C 30.1667,31.5 28.8333,31.5 27.5,31.5C 23.8544,27.1877 19.8544,23.1877 15.5,19.5C 11.1456,23.1877 7.14563,27.1877 3.5,31.5C 2.16667,31.5 0.833333,31.5 -0.5,31.5C -0.5,30.1667 -0.5,28.8333 -0.5,27.5C 3.8123,23.8544 7.8123,19.8544 11.5,15.5C 7.8123,11.1456 3.8123,7.14563 -0.5,3.5C -0.5,2.16667 -0.5,0.833333 -0.5,-0.5 Z"/></g>
</svg>
