<?xml version="1.0" encoding="UTF-8"?>
<!DOCTYPE svg PUBLIC "-//W3C//DTD SVG 1.1//EN" "http://www.w3.org/Graphics/SVG/1.1/DTD/svg11.dtd">
<svg xmlns="http://www.w3.org/2000/svg" version="1.1" width="32px" height="32px" style="shape-rendering:geometricPrecision; text-rendering:geometricPrecision; image-rendering:optimizeQuality; fill-rule:evenodd; clip-rule:evenodd" xmlns:xlink="http://www.w3.org/1999/xlink">
<g><path style="opacity:0.839" fill="#fefffe" d="M 12.5,-0.5 C 14.5,-0.5 16.5,-0.5 18.5,-0.5C 22.4989,2.83001 23.3322,6.83001 21,11.5C 14.4517,16.1487 10.2851,14.4821 8.5,6.5C 9.07073,3.68734 10.4041,1.35401 12.5,-0.5 Z"/></g>
<g><path style="opacity:0.404" fill="#fefffe" d="M 23.5,31.5 C 18.1667,31.5 12.8333,31.5 7.5,31.5C 3.55293,23.0631 6.2196,18.0631 15.5,16.5C 20.7478,16.2672 23.5811,18.6005 24,23.5C 18.933,16.2601 13.5997,15.9268 8,22.5C 6.13579,24.9551 6.30246,27.1217 8.5,29C 13.1667,29.6667 17.8333,29.6667 22.5,29C 23.8932,27.8289 24.7265,26.3289 25,24.5C 25.8332,27.171 25.3332,29.5043 23.5,31.5 Z"/></g>
</svg>
