<?xml version="1.0" encoding="UTF-8"?>
<!DOCTYPE svg PUBLIC "-//W3C//DTD SVG 1.1//EN" "http://www.w3.org/Graphics/SVG/1.1/DTD/svg11.dtd">
<svg xmlns="http://www.w3.org/2000/svg" version="1.1" width="32px" height="32px" style="shape-rendering:geometricPrecision; text-rendering:geometricPrecision; image-rendering:optimizeQuality; fill-rule:evenodd; clip-rule:evenodd" xmlns:xlink="http://www.w3.org/1999/xlink">
<g><path style="opacity:0.711" fill="#fefffe" d="M 31.5,20.5 C 31.5,22.8333 31.5,25.1667 31.5,27.5C 30.6906,28.4687 29.6906,29.3021 28.5,30C 19.8333,30.6667 11.1667,30.6667 2.5,30C 1.47344,29.4867 0.473444,28.9867 -0.5,28.5C -0.5,25.8333 -0.5,23.1667 -0.5,20.5C 3.47607,15.2324 6.97607,9.56573 10,3.5C 13.6667,-0.5 17.3333,-0.5 21,3.5C 24.0239,9.56573 27.5239,15.2324 31.5,20.5 Z M 13.5,4.5 C 15.1439,4.28649 16.6439,4.61983 18,5.5C 21.5,11.8333 25,18.1667 28.5,24.5C 28.2907,25.086 27.9574,25.586 27.5,26C 20.2735,27.5945 12.9402,27.9278 5.5,27C 4.58377,26.6258 3.75044,26.1258 3,25.5C 5.91317,18.3402 9.41317,11.3402 13.5,4.5 Z"/></g>
<g><path style="opacity:0.609" fill="#fefffe" d="M 13.5,9.5 C 14.8333,9.5 16.1667,9.5 17.5,9.5C 17.3178,14.1686 17.3178,18.6686 17.5,23C 16.1667,26.3333 14.8333,26.3333 13.5,23C 13.6822,18.6686 13.6822,14.1686 13.5,9.5 Z"/></g>
</svg>
